<?xml version="1.0" encoding="utf-8"?>
<!-- Generator: Adobe Illustrator 25.0.1, SVG Export Plug-In . SVG Version: 6.00 Build 0)  -->
<svg version="1.1" id="Layer_1" xmlns="http://www.w3.org/2000/svg" xmlns:xlink="http://www.w3.org/1999/xlink" x="0px" y="0px"
	 viewBox="0 0 40 40" style="enable-background:new 0 0 40 40;" xml:space="preserve">
<style type="text/css">
	.st0{fill:#FFC312;}
</style>
<path class="st0" d="M37.8,6.2c0.3-0.6,0.5-1.3,0.5-2C38.3,1.9,36.4,0,34,0s-4.3,1.9-4.3,4.3s1.9,4.3,4.3,4.3c0.7,0,1.4-0.2,2-0.5
	l1.8,1.8c0.2,0.2,0.6,0.4,0.9,0.4s0.7-0.1,0.9-0.4c0.5-0.5,0.5-1.3,0-1.8l0,0L37.8,6.2z M32.3,4.3c0-0.9,0.8-1.7,1.7-1.7
	c0.9,0,1.7,0.8,1.7,1.7C35.8,5.2,35,6,34,6C33.1,6,32.3,5.2,32.3,4.3z"/>
<path class="st0" d="M3,10.2h21.3c1.6,0,3-1.3,3-3V3c0-1.6-1.3-3-3-3H3C1.3,0,0,1.3,0,3v4.3C0,8.9,1.3,10.2,3,10.2z"/>
<path class="st0" d="M3,25.1h12.8c1.6,0,3-1.3,3-3v-6c0-1.6-1.3-3-3-3H3c-1.6,0-3,1.3-3,3v6C0,23.8,1.3,25.1,3,25.1z"/>
<path class="st0" d="M3,40h12.8c1.6,0,3-1.3,3-3v-6c0-1.6-1.3-3-3-3H3c-1.6,0-3,1.3-3,3v6C0,38.7,1.3,40,3,40z"/>
<path class="st0" d="M37,12.7H24.2c-1.6,0-3,1.3-3,3V37c0,1.7,1.3,3,3,3H37c1.7,0,3-1.3,3-3V15.7C40,14.1,38.7,12.7,37,12.7z
	 M23.8,15.7c0-0.2,0.2-0.4,0.4-0.4h0H37c0.2,0,0.4,0.2,0.4,0.4v0v10.4l-0.3-0.3c-1.2-1.3-3.1-1.4-4.4-0.2c-0.1,0.1-0.2,0.1-0.2,0.2
	l-1.7,2.1c-0.1,0.1-0.2,0.1-0.3,0.1c-0.1,0-0.2,0-0.3-0.1l-0.9-0.9c-1.2-1.2-3.1-1.2-4.2,0l-1.3,1.3L23.8,15.7z"/>
</svg>
