<?xml version="1.0" encoding="utf-8"?>
<!-- Generator: Adobe Illustrator 25.0.1, SVG Export Plug-In . SVG Version: 6.00 Build 0)  -->
<svg version="1.1" id="Layer_1" xmlns="http://www.w3.org/2000/svg" xmlns:xlink="http://www.w3.org/1999/xlink" x="0px" y="0px"
	 viewBox="0 0 40 40" style="enable-background:new 0 0 40 40;" xml:space="preserve">
<style type="text/css">
	.st0{fill:#FFC312;}
</style>
<g transform="translate(0)">
	<g transform="translate(0)">
		<path class="st0" d="M38.8,0h-4.8c-0.7,0-1.2,0.5-1.2,1.2l0,0v1.2h-9.6c-0.6-1.8-2.6-2.8-4.5-2.2c-1,0.4-1.8,1.1-2.1,2.2H7.1V1.2
			C7.1,0.5,6.6,0,5.9,0l0,0H1.2C0.5,0,0,0.5,0,1.2l0,0v4.7C0,6.5,0.5,7,1.2,7l0,0h4.8c0.7,0,1.2-0.5,1.2-1.2l0,0V4.7h4.8
			c-4.2,2.6-6.8,7.1-7.1,12C3,17.3,2,19.3,2.6,21.1s2.6,2.8,4.4,2.2s2.8-2.6,2.2-4.4c-0.3-1-1.1-1.8-2.1-2.2
			c0.4-5.6,4.3-10.2,9.7-11.6c0.9,1.7,3,2.4,4.7,1.5c0.7-0.3,1.2-0.9,1.5-1.5c5.4,1.4,9.3,6.1,9.7,11.6c-1.8,0.7-2.7,2.7-2,4.5
			c0.7,1.8,2.7,2.7,4.5,2s2.7-2.7,2-4.5c-0.4-1-1.2-1.8-2.2-2.1c-0.3-4.9-2.9-9.4-7.1-12h4.8v1.2C32.9,6.5,33.4,7,34,7l0,0h4.8
			C39.5,7,40,6.5,40,5.9l0,0V1.2C40,0.5,39.5,0,38.8,0L38.8,0z"/>
	</g>
	<g transform="translate(11.976 35.234)">
		<path class="st0" d="M16,3.3C15.4,1.4,13.6,0,11.5,0h-7C2.5,0,0.7,1.4,0,3.3c-0.2,0.6,0.2,1.2,0.8,1.4c0.1,0,0.2,0,0.3,0h13.7
			c0.6,0,1.2-0.5,1.2-1.1C16,3.5,16,3.4,16,3.3z"/>
	</g>
	<g transform="translate(9.453 10.27)">
		<path class="st0" d="M20.9,13.8L11.7,0v11.1c1.8,0.6,2.8,2.7,2.1,4.5s-2.7,2.8-4.5,2.1s-2.8-2.7-2.1-4.5c0.3-1,1.1-1.8,2.1-2.1V0
			L0.2,13.8c-0.3,0.5-0.2,1.1,0.2,1.5c2.1,2.2,3.5,4.9,4.1,7.9c0.8-0.3,1.7-0.5,2.6-0.5h7c0.9,0,1.8,0.2,2.6,0.5
			c0.5-3,1.9-5.7,4.1-7.9C21.1,14.9,21.2,14.2,20.9,13.8z"/>
	</g>
	<g transform="translate(18.828 23.516)">
		<path class="st0" d="M1.2,0C0.5,0,0,0.5,0,1.2s0.5,1.2,1.2,1.2s1.2-0.5,1.2-1.2l0,0C2.3,0.5,1.8,0,1.2,0z"/>
	</g>
</g>
</svg>
