<?xml version="1.0" encoding="utf-8"?>
<!-- Generator: Adobe Illustrator 25.1.0, SVG Export Plug-In . SVG Version: 6.00 Build 0)  -->
<svg version="1.1" id="Layer_1" xmlns="http://www.w3.org/2000/svg" xmlns:xlink="http://www.w3.org/1999/xlink" x="0px" y="0px"
	 viewBox="0 0 534.44 153.31" style="enable-background:new 0 0 534.44 153.31;" xml:space="preserve">
<style type="text/css">
	.st0{fill:#1CA7EC;}
</style>
<g>
	<path class="st0" d="M508.99,46.9c-0.06-0.96-0.79-1.74-1.74-1.86l-70.31-9.25c-0.79-0.1-1.56,0.27-1.97,0.94l-0.33,0.54
		L417.9,15.04c-0.01-0.01-0.01-0.01-0.02-0.02c-0.01-0.01-0.02-0.02-0.02-0.03c-0.07-0.08-0.14-0.15-0.21-0.22
		c-0.02-0.02-0.04-0.03-0.05-0.04c-0.08-0.07-0.16-0.13-0.25-0.18c-0.02-0.01-0.04-0.02-0.06-0.03c-0.1-0.06-0.21-0.11-0.32-0.14
		c-0.02-0.01-0.05-0.01-0.07-0.02c-0.1-0.03-0.2-0.06-0.3-0.07c-0.01,0-0.03-0.01-0.04-0.01c-0.01,0-0.01,0-0.02,0
		c-0.12-0.01-0.24-0.02-0.35-0.01c-0.02,0-0.05,0-0.07,0.01c-0.04,0-0.09,0-0.13,0.01l-1.86,0.29l-3.1-12.4
		c-0.18-0.74-0.81-1.28-1.57-1.35c-0.75-0.08-1.48,0.33-1.81,1.01L396.4,25.27l-11.12,9.39c-0.71,0.6-0.91,1.6-0.5,2.43
		c0.32,0.64,0.95,1.05,1.64,1.1c0.2,0.01,0.4,0,0.61-0.05l16.4-3.87l11.68,36.35c0,0.01,0.01,0.02,0.01,0.03
		c0.01,0.03,0.02,0.05,0.03,0.08c0.02,0.06,0.05,0.12,0.08,0.17c0.01,0.03,0.03,0.05,0.04,0.08c0.03,0.06,0.07,0.12,0.11,0.17
		c0.01,0.01,0.02,0.03,0.03,0.04c0,0.01,0.01,0.01,0.01,0.02c0.02,0.03,0.05,0.06,0.07,0.08c0.03,0.03,0.05,0.06,0.08,0.09
		c0.02,0.02,0.05,0.05,0.07,0.07c0.03,0.03,0.06,0.06,0.09,0.08c0.03,0.02,0.05,0.04,0.08,0.06c0.03,0.03,0.07,0.05,0.1,0.07
		c0.03,0.02,0.06,0.03,0.08,0.05c0.04,0.02,0.07,0.04,0.11,0.06c0.03,0.01,0.06,0.03,0.09,0.04c0.04,0.02,0.08,0.03,0.12,0.05
		c0.02,0.01,0.03,0.02,0.05,0.02l66.14,22.62c0.17,0.06,0.33,0.09,0.5,0.1c0.71,0.05,1.41-0.28,1.82-0.89
		c0.5-0.76,0.43-1.76-0.18-2.44L458,61.6l49.49-12.65C508.42,48.72,509.05,47.86,508.99,46.9z M424.02,70.29l29.61-7.57l22.92,25.53
		L424.02,70.29z M401.39,30.64l-7.13,1.68l2.73-2.31l2.37-2.01l1.72-1.45l8.57-7.24l0.29-0.04l2.54-0.4l0.57-0.09l0.14-0.02
		l-1.35,3.5l-2.5,6.51l-3.31,0.78l-2.29,0.54L401.39,30.64z M408.75,7.87l1.81,7.25l-2.08,0.33c-0.36,0.06-0.7,0.21-0.98,0.45
		l-4.38,3.7L408.75,7.87z M411.29,32.42c0.64-0.15,1.17-0.61,1.41-1.23l4.18-10.86l15.53,20.61l-14.82,24.3l-10.24-31.89
		L411.29,32.42z M452.8,58.8l-2.19,0.56l-29.32,7.49l13.75-22.55l1.08-1.77l1.12-1.84l0.47-0.78l58.73,7.73l-41.46,10.6L452.8,58.8z
		"/>
	<g>
		<path class="st0" d="M70.77,100.78v13.81H34V51.81h14.35v48.97H70.77z"/>
		<path class="st0" d="M122.16,69.75v44.84h-13.45v-4.22c-2.96,3.41-7.35,5.47-13.36,5.47c-11.75,0-21.44-10.31-21.44-23.68
			s9.69-23.68,21.44-23.68c6.01,0,10.4,2.06,13.36,5.47v-4.22H122.16z M108.71,92.17c0-6.73-4.48-10.94-10.67-10.94
			c-6.19,0-10.67,4.22-10.67,10.94c0,6.73,4.48,10.94,10.67,10.94C104.22,103.11,108.71,98.9,108.71,92.17z"/>
		<path class="st0" d="M158.93,68.85V84.1c-5.56-0.9-13.45,1.35-13.45,10.22v20.27h-13.45V69.75h13.45v7.98
			C147.27,71.72,153.28,68.85,158.93,68.85z"/>
		<path class="st0" d="M193.01,114.59l-14.35-19.82v19.82h-13.45V51.81h13.45v37.58l13.45-19.64h15.7l-16.32,22.42l16.77,22.42
			H193.01z"/>
		<path class="st0" d="M238.43,114.59c-0.47-1.02-0.8-2.74-1.01-5.17c-2.74,4.03-6.25,6.04-10.51,6.04c-4.29,0-7.64-1.2-10.05-3.61
			s-3.61-5.8-3.61-10.18c0-4.82,1.63-8.64,4.9-11.47c3.27-2.83,7.75-4.28,13.44-4.34h5.69v-5.04c0-2.83-0.63-4.85-1.88-6.04
			c-1.26-1.2-3.17-1.8-5.74-1.8c-2.34,0-4.23,0.69-5.69,2.08c-1.46,1.39-2.19,3.15-2.19,5.28h-7.75c0-2.42,0.72-4.74,2.15-6.94
			c1.43-2.2,3.36-3.93,5.78-5.19c2.42-1.25,5.12-1.88,8.1-1.88c4.85,0,8.53,1.2,11.06,3.61c2.52,2.41,3.82,5.92,3.88,10.53v23.91
			c0.03,3.65,0.53,6.82,1.49,9.5v0.7H238.43z M228.1,108.42c1.9,0,3.71-0.53,5.43-1.58c1.72-1.05,2.98-2.36,3.77-3.94V91.6h-4.38
			c-3.68,0.06-6.58,0.88-8.71,2.47c-2.13,1.59-3.2,3.82-3.2,6.68c0,2.69,0.54,4.64,1.62,5.85
			C223.7,107.81,225.53,108.42,228.1,108.42z"/>
		<path class="st0" d="M287.39,93.18c0,7.39-1.33,12.95-3.98,16.69c-2.66,3.74-6.51,5.61-11.56,5.61c-5.02,0-8.79-2.16-11.3-6.48
			l-0.39,5.61h-7.05V47.33h7.71v25.09c2.54-4.06,6.19-6.09,10.95-6.09c5.2,0,9.09,1.84,11.69,5.52c2.6,3.68,3.91,9.23,3.94,16.64
			V93.18z M279.68,88.74c0-5.6-0.78-9.59-2.34-11.96c-1.56-2.38-4.09-3.56-7.6-3.56c-4,0-6.98,2.16-8.93,6.47v22.53
			c1.93,4.26,4.93,6.39,9.02,6.39c3.5,0,6.01-1.22,7.53-3.67c1.52-2.45,2.29-6.25,2.32-11.42V88.74z"/>
		<path class="st0" d="M291.72,88.71c0-6.89,1.67-12.34,5.01-16.36c3.34-4.01,7.76-6.02,13.25-6.02c5.49,0,9.9,1.96,13.25,5.87
			c3.34,3.91,5.06,9.24,5.15,15.98v4.99c0,6.86-1.66,12.29-4.99,16.29c-3.33,4-7.77,6-13.31,6c-5.49,0-9.89-1.94-13.2-5.82
			c-3.31-3.88-5.03-9.14-5.15-15.77V88.71z M299.47,93.18c0,4.88,0.96,8.71,2.87,11.5c1.91,2.79,4.49,4.18,7.73,4.18
			c6.83,0,10.35-4.93,10.55-14.8v-5.34c0-4.85-0.96-8.68-2.89-11.5c-1.93-2.82-4.51-4.23-7.75-4.23c-3.18,0-5.73,1.41-7.64,4.23
			c-1.91,2.82-2.87,6.63-2.87,11.45V93.18z"/>
		<path class="st0" d="M358.59,110.43c-2.57,3.36-6.32,5.04-11.25,5.04c-4.29,0-7.53-1.48-9.72-4.45c-2.19-2.96-3.3-7.28-3.33-12.94
			V67.21h7.71v30.3c0,7.39,2.22,11.08,6.66,11.08c4.7,0,7.94-2.1,9.72-6.31V67.21h7.75v47.38h-7.36L358.59,110.43z"/>
		<path class="st0" d="M386.13,55.74v11.47h7.14v6.26h-7.14v29.42c0,1.87,0.31,3.29,0.92,4.25c0.61,0.96,1.66,1.45,3.15,1.45
			c1.02,0,2.06-0.18,3.11-0.53l-0.09,6.53c-1.75,0.58-3.55,0.87-5.39,0.87c-3.07,0-5.4-1.09-7.01-3.28
			c-1.61-2.19-2.41-5.28-2.41-9.28V73.47h-7.23v-6.26h7.23V55.74H386.13z"/>
		<path class="st0" d="M403.04,110.56c0-1.81,0.54-3.32,1.61-4.53c1.08-1.21,2.69-1.81,4.84-1.81c2.15,0,3.78,0.6,4.9,1.81
			c1.11,1.21,1.67,2.72,1.67,4.53c0,1.74-0.56,3.19-1.67,4.36c-1.11,1.17-2.75,1.75-4.9,1.75c-2.15,0-3.76-0.59-4.84-1.75
			C403.58,113.75,403.04,112.29,403.04,110.56z"/>
	</g>
</g>
<g>
	<path class="st0" d="M40,134.6l2.36-7.06h3.45l-4.21,10.02v5.7h-3.22v-5.7l-4.22-10.02h3.45L40,134.6z"/>
	<path class="st0" d="M46.05,137.04c0-1.77,0.42-3.16,1.25-4.17c0.83-1.01,1.99-1.51,3.46-1.51c1.49,0,2.65,0.5,3.49,1.51
		c0.83,1.01,1.25,2.4,1.25,4.19v0.74c0,1.78-0.41,3.17-1.24,4.17s-1.99,1.5-3.48,1.5c-1.5,0-2.66-0.5-3.49-1.51s-1.25-2.4-1.25-4.18
		V137.04z M49.11,137.8c0,2.09,0.56,3.13,1.67,3.13c1.03,0,1.58-0.87,1.66-2.61l0.01-1.29c0-1.06-0.15-1.85-0.44-2.37
		c-0.29-0.51-0.71-0.77-1.25-0.77c-0.52,0-0.92,0.26-1.21,0.77c-0.29,0.51-0.44,1.3-0.44,2.37V137.8z"/>
	<path class="st0" d="M63.14,142.18c-0.63,0.86-1.48,1.28-2.55,1.28c-1.07,0-1.89-0.37-2.44-1.11c-0.55-0.74-0.83-1.81-0.83-3.22
		v-7.57h3.05v7.64c0.01,1.14,0.39,1.71,1.13,1.71c0.7,0,1.2-0.3,1.51-0.91v-8.44h3.08v11.68h-2.87L63.14,142.18z"/>
	<path class="st0" d="M77.25,138.75l-0.82,0.92v3.58h-3.05v-16.58h3.05v8.96l0.38-0.56l2.12-3.5h3.64l-3.39,4.81l3.71,6.87h-3.5
		L77.25,138.75z"/>
	<path class="st0" d="M86.75,131.57l0.09,1.15c0.69-0.91,1.59-1.37,2.71-1.37c2.01,0,3.04,1.41,3.1,4.22v7.67h-3.07v-7.45
		c0-0.66-0.1-1.14-0.3-1.44s-0.54-0.45-1.04-0.45c-0.55,0-0.99,0.28-1.3,0.85v8.48h-3.07v-11.68H86.75z"/>
	<path class="st0" d="M94.48,137.04c0-1.77,0.42-3.16,1.25-4.17c0.83-1.01,1.99-1.51,3.46-1.51c1.49,0,2.65,0.5,3.49,1.51
		c0.83,1.01,1.25,2.4,1.25,4.19v0.74c0,1.78-0.41,3.17-1.24,4.17s-1.99,1.5-3.48,1.5c-1.5,0-2.66-0.5-3.49-1.51s-1.25-2.4-1.25-4.18
		V137.04z M97.54,137.8c0,2.09,0.56,3.13,1.67,3.13c1.03,0,1.58-0.87,1.66-2.61l0.01-1.29c0-1.06-0.15-1.85-0.44-2.37
		c-0.29-0.51-0.71-0.77-1.25-0.77c-0.52,0-0.92,0.26-1.21,0.77c-0.29,0.51-0.44,1.3-0.44,2.37V137.8z"/>
	<path class="st0" d="M114.34,138.13l1.05-6.55h2.93l-2.42,11.68h-2.54l-1.65-6.76l-1.65,6.76h-2.55l-2.42-11.68h2.94l1.04,6.56
		l1.55-6.56h2.17L114.34,138.13z"/>
	<path class="st0" d="M133.42,138.13l1.05-6.55h2.93l-2.42,11.68h-2.54l-1.65-6.76l-1.65,6.76h-2.55l-2.42-11.68h2.94l1.04,6.56
		l1.55-6.56h2.17L133.42,138.13z"/>
	<path class="st0" d="M141.88,132.6c0.66-0.83,1.48-1.24,2.44-1.24c1.06,0,1.87,0.37,2.43,1.12c0.55,0.75,0.83,1.86,0.84,3.35v7.43
		h-3.07v-7.39c0-0.68-0.11-1.18-0.32-1.48s-0.56-0.46-1.03-0.46c-0.55,0-0.99,0.26-1.3,0.77v8.57h-3.05v-16.58h3.05V132.6z"/>
	<path class="st0" d="M155.33,143.25c-0.09-0.18-0.17-0.48-0.26-0.91c-0.55,0.75-1.29,1.12-2.22,1.12c-0.98,0-1.79-0.32-2.43-0.97
		s-0.97-1.49-0.97-2.51c0-1.22,0.39-2.17,1.17-2.84s1.91-1.01,3.37-1.03h0.93v-0.94c0-0.52-0.09-0.9-0.27-1.11
		c-0.18-0.22-0.44-0.32-0.79-0.32c-0.76,0-1.14,0.45-1.14,1.34h-3.05c0-1.08,0.4-1.97,1.21-2.67c0.81-0.7,1.83-1.05,3.07-1.05
		c1.28,0,2.27,0.33,2.97,1s1.05,1.62,1.05,2.85v5.49c0.01,1.01,0.16,1.8,0.43,2.36v0.18H155.33z M153.53,141.07
		c0.34,0,0.63-0.07,0.86-0.21c0.24-0.14,0.41-0.3,0.53-0.49v-2.43h-0.73c-0.52,0-0.93,0.17-1.23,0.5c-0.3,0.33-0.45,0.77-0.45,1.33
		C152.52,140.64,152.86,141.07,153.53,141.07z"/>
	<path class="st0" d="M163.74,128.7v2.87h1.56v2.29h-1.56v5.8c0,0.46,0.06,0.78,0.19,0.95c0.13,0.17,0.37,0.26,0.73,0.26
		c0.29,0,0.54-0.02,0.72-0.08l-0.02,2.38c-0.52,0.19-1.08,0.29-1.68,0.29c-1.97,0-2.97-1.13-2.99-3.39v-6.21h-1.35v-2.29h1.35v-2.87
		H163.74z"/>
	<path class="st0" d="M175.82,138.17l1.55-6.59h3.26L176.79,145c-0.58,1.98-1.66,2.97-3.25,2.97c-0.37,0-0.78-0.07-1.25-0.21v-2.39
		l0.36,0.01c0.47,0,0.83-0.09,1.07-0.27s0.42-0.5,0.54-0.96l0.24-0.79l-3.37-11.8h3.28L175.82,138.17z"/>
	<path class="st0" d="M181.58,137.04c0-1.77,0.42-3.16,1.25-4.17c0.83-1.01,1.99-1.51,3.46-1.51c1.49,0,2.65,0.5,3.49,1.51
		c0.83,1.01,1.25,2.4,1.25,4.19v0.74c0,1.78-0.41,3.17-1.24,4.17s-1.99,1.5-3.48,1.5c-1.5,0-2.66-0.5-3.49-1.51s-1.25-2.4-1.25-4.18
		V137.04z M184.65,137.8c0,2.09,0.56,3.13,1.67,3.13c1.03,0,1.58-0.87,1.66-2.61l0.01-1.29c0-1.06-0.15-1.85-0.44-2.37
		c-0.29-0.51-0.71-0.77-1.25-0.77c-0.52,0-0.92,0.26-1.21,0.77c-0.29,0.51-0.44,1.3-0.44,2.37V137.8z"/>
	<path class="st0" d="M198.68,142.18c-0.63,0.86-1.48,1.28-2.55,1.28c-1.07,0-1.89-0.37-2.44-1.11c-0.55-0.74-0.83-1.81-0.83-3.22
		v-7.57h3.05v7.64c0.01,1.14,0.39,1.71,1.13,1.71c0.7,0,1.2-0.3,1.51-0.91v-8.44h3.08v11.68h-2.87L198.68,142.18z"/>
	<path class="st0" d="M212.12,143.25h-3.07v-16.58h3.07V143.25z"/>
	<path class="st0" d="M214.49,128.55c0-0.48,0.15-0.86,0.45-1.17c0.3-0.3,0.71-0.45,1.21-0.45c0.5,0,0.91,0.15,1.21,0.45
		c0.3,0.3,0.45,0.69,0.45,1.17c0,0.47-0.15,0.86-0.45,1.17c-0.3,0.31-0.7,0.46-1.21,0.46s-0.92-0.16-1.21-0.46
		C214.63,129.41,214.49,129.02,214.49,128.55z M217.69,143.25h-3.07v-11.68h3.07V143.25z"/>
	<path class="st0" d="M223.93,138.75l-0.82,0.92v3.58h-3.05v-16.58h3.05v8.96l0.38-0.56l2.12-3.5h3.64l-3.39,4.81l3.71,6.87h-3.5
		L223.93,138.75z"/>
	<path class="st0" d="M235.35,143.47c-1.57,0-2.79-0.47-3.67-1.4s-1.32-2.27-1.32-4.02v-0.93c0-1.84,0.4-3.26,1.21-4.26
		s1.96-1.5,3.46-1.5c1.47,0,2.57,0.47,3.31,1.41c0.74,0.94,1.12,2.33,1.13,4.17v1.5h-6.08c0.04,0.87,0.23,1.5,0.57,1.9
		c0.34,0.4,0.86,0.6,1.56,0.6c1.02,0,1.87-0.35,2.56-1.05l1.2,1.85c-0.37,0.52-0.92,0.94-1.63,1.26S236.18,143.47,235.35,143.47z
		 M233.43,136.3h3.05v-0.28c-0.01-0.7-0.13-1.23-0.35-1.59c-0.22-0.36-0.59-0.54-1.12-0.54c-0.53,0-0.92,0.19-1.16,0.57
		C233.61,134.85,233.47,135.46,233.43,136.3z"/>
	<path class="st0" d="M249.86,128.7v2.87h1.56v2.29h-1.56v5.8c0,0.46,0.06,0.78,0.19,0.95c0.13,0.17,0.37,0.26,0.73,0.26
		c0.29,0,0.54-0.02,0.72-0.08l-0.02,2.38c-0.52,0.19-1.08,0.29-1.68,0.29c-1.97,0-2.97-1.13-2.99-3.39v-6.21h-1.35v-2.29h1.35v-2.87
		H249.86z"/>
	<path class="st0" d="M252.41,137.04c0-1.77,0.42-3.16,1.25-4.17c0.83-1.01,1.99-1.51,3.46-1.51c1.49,0,2.65,0.5,3.49,1.51
		c0.83,1.01,1.25,2.4,1.25,4.19v0.74c0,1.78-0.41,3.17-1.24,4.17s-1.99,1.5-3.48,1.5c-1.5,0-2.66-0.5-3.49-1.51s-1.25-2.4-1.25-4.18
		V137.04z M255.48,137.8c0,2.09,0.56,3.13,1.67,3.13c1.03,0,1.58-0.87,1.66-2.61l0.01-1.29c0-1.06-0.15-1.85-0.44-2.37
		c-0.29-0.51-0.71-0.77-1.25-0.77c-0.52,0-0.92,0.26-1.21,0.77c-0.29,0.51-0.44,1.3-0.44,2.37V137.8z"/>
	<path class="st0" d="M268.45,137.06c0-1.91,0.32-3.34,0.97-4.29c0.65-0.94,1.59-1.41,2.83-1.41c0.9,0,1.65,0.39,2.25,1.17v-5.85
		h3.08v16.58h-2.77l-0.14-1.19c-0.63,0.94-1.43,1.4-2.42,1.4c-1.22,0-2.16-0.47-2.8-1.4c-0.64-0.94-0.97-2.31-0.99-4.12V137.06z
		 M271.52,137.82c0,1.15,0.12,1.96,0.37,2.41c0.24,0.46,0.66,0.69,1.24,0.69c0.6,0,1.06-0.27,1.37-0.81v-5.33
		c-0.3-0.58-0.76-0.86-1.36-0.86c-0.56,0-0.97,0.23-1.23,0.68c-0.26,0.45-0.39,1.26-0.39,2.42V137.82z"/>
	<path class="st0" d="M279.47,137.04c0-1.77,0.42-3.16,1.25-4.17s1.99-1.51,3.46-1.51c1.49,0,2.65,0.5,3.49,1.51s1.25,2.4,1.25,4.19
		v0.74c0,1.78-0.41,3.17-1.24,4.17s-1.99,1.5-3.48,1.5c-1.5,0-2.66-0.5-3.49-1.51s-1.25-2.4-1.25-4.18V137.04z M282.53,137.8
		c0,2.09,0.56,3.13,1.67,3.13c1.03,0,1.58-0.87,1.66-2.61l0.01-1.29c0-1.06-0.15-1.85-0.44-2.37c-0.29-0.51-0.71-0.77-1.25-0.77
		c-0.52,0-0.92,0.26-1.21,0.77c-0.29,0.51-0.44,1.3-0.44,2.37V137.8z"/>
	<path class="st0" d="M291.73,147.21l-1.63-0.85l0.41-0.77c0.46-0.85,0.7-1.71,0.71-2.57v-2.43h2.66l-0.01,2.17
		c-0.01,0.76-0.2,1.55-0.58,2.37C292.9,145.96,292.38,146.65,291.73,147.21z"/>
	<path class="st0" d="M306.89,143.25c-0.09-0.18-0.17-0.48-0.26-0.91c-0.55,0.75-1.29,1.12-2.22,1.12c-0.98,0-1.79-0.32-2.43-0.97
		s-0.97-1.49-0.97-2.51c0-1.22,0.39-2.17,1.17-2.84s1.91-1.01,3.37-1.03h0.93v-0.94c0-0.52-0.09-0.9-0.27-1.11s-0.44-0.32-0.79-0.32
		c-0.76,0-1.14,0.45-1.14,1.34h-3.05c0-1.08,0.4-1.97,1.21-2.67c0.81-0.7,1.83-1.05,3.07-1.05c1.28,0,2.27,0.33,2.97,1
		s1.05,1.62,1.05,2.85v5.49c0.01,1.01,0.16,1.8,0.43,2.36v0.18H306.89z M305.09,141.07c0.34,0,0.63-0.07,0.86-0.21
		s0.41-0.3,0.53-0.49v-2.43h-0.73c-0.52,0-0.93,0.17-1.22,0.5c-0.3,0.33-0.45,0.77-0.45,1.33
		C304.08,140.64,304.41,141.07,305.09,141.07z"/>
	<path class="st0" d="M314.55,131.57l0.09,1.15c0.69-0.91,1.59-1.37,2.71-1.37c2.01,0,3.04,1.41,3.1,4.22v7.67h-3.07v-7.45
		c0-0.66-0.1-1.14-0.3-1.44s-0.54-0.45-1.04-0.45c-0.55,0-0.99,0.28-1.3,0.85v8.48h-3.07v-11.68H314.55z"/>
	<path class="st0" d="M322.22,137.06c0-1.91,0.32-3.34,0.97-4.29c0.65-0.94,1.59-1.41,2.83-1.41c0.9,0,1.65,0.39,2.25,1.17v-5.85
		h3.08v16.58h-2.77l-0.14-1.19c-0.63,0.94-1.43,1.4-2.42,1.4c-1.22,0-2.16-0.47-2.8-1.4c-0.64-0.94-0.97-2.31-0.99-4.12V137.06z
		 M325.29,137.82c0,1.15,0.12,1.96,0.37,2.41c0.25,0.46,0.66,0.69,1.24,0.69c0.6,0,1.06-0.27,1.37-0.81v-5.33
		c-0.3-0.58-0.76-0.86-1.36-0.86c-0.56,0-0.97,0.23-1.23,0.68c-0.26,0.45-0.39,1.26-0.39,2.42V137.82z"/>
	<path class="st0" d="M343.85,140.12c0-0.26-0.12-0.5-0.37-0.72c-0.25-0.22-0.8-0.52-1.66-0.89c-1.26-0.51-2.13-1.04-2.6-1.59
		c-0.47-0.55-0.71-1.23-0.71-2.04c0-1.02,0.37-1.87,1.11-2.53c0.74-0.67,1.71-1,2.93-1c1.28,0,2.31,0.33,3.08,0.99
		c0.77,0.66,1.15,1.55,1.15,2.67h-3.05c0-0.95-0.4-1.42-1.19-1.42c-0.32,0-0.59,0.1-0.8,0.3c-0.21,0.2-0.31,0.48-0.31,0.84
		c0,0.26,0.12,0.49,0.35,0.69c0.23,0.2,0.77,0.48,1.63,0.85c1.24,0.46,2.12,0.97,2.64,1.54c0.51,0.56,0.77,1.3,0.77,2.2
		c0,1.04-0.39,1.88-1.18,2.51c-0.79,0.63-1.81,0.95-3.09,0.95c-0.86,0-1.61-0.17-2.27-0.5c-0.65-0.33-1.17-0.8-1.54-1.4
		c-0.37-0.6-0.56-1.24-0.56-1.93h2.9c0.01,0.53,0.14,0.93,0.37,1.2c0.23,0.27,0.62,0.4,1.15,0.4
		C343.44,141.23,343.85,140.86,343.85,140.12z"/>
	<path class="st0" d="M348.36,137.04c0-1.77,0.42-3.16,1.25-4.17s1.99-1.51,3.46-1.51c1.49,0,2.65,0.5,3.49,1.51s1.25,2.4,1.25,4.19
		v0.74c0,1.78-0.41,3.17-1.24,4.17s-1.99,1.5-3.48,1.5c-1.5,0-2.66-0.5-3.49-1.51s-1.25-2.4-1.25-4.18V137.04z M351.43,137.8
		c0,2.09,0.56,3.13,1.67,3.13c1.03,0,1.58-0.87,1.66-2.61l0.01-1.29c0-1.06-0.15-1.85-0.44-2.37c-0.29-0.51-0.71-0.77-1.25-0.77
		c-0.52,0-0.92,0.26-1.21,0.77c-0.29,0.51-0.44,1.3-0.44,2.37V137.8z"/>
	<path class="st0" d="M364.4,137.06c0-1.91,0.32-3.34,0.97-4.29c0.65-0.94,1.59-1.41,2.83-1.41c0.9,0,1.65,0.39,2.25,1.17v-5.85
		h3.08v16.58h-2.77l-0.14-1.19c-0.63,0.94-1.43,1.4-2.42,1.4c-1.22,0-2.16-0.47-2.8-1.4c-0.64-0.94-0.97-2.31-0.99-4.12V137.06z
		 M367.47,137.82c0,1.15,0.12,1.96,0.37,2.41c0.25,0.46,0.66,0.69,1.24,0.69c0.6,0,1.06-0.27,1.37-0.81v-5.33
		c-0.3-0.58-0.76-0.86-1.36-0.86c-0.56,0-0.97,0.23-1.23,0.68c-0.26,0.45-0.39,1.26-0.39,2.42V137.82z"/>
	<path class="st0" d="M375.41,137.04c0-1.77,0.42-3.16,1.25-4.17s1.99-1.51,3.46-1.51c1.49,0,2.65,0.5,3.49,1.51s1.25,2.4,1.25,4.19
		v0.74c0,1.78-0.41,3.17-1.24,4.17s-1.99,1.5-3.48,1.5c-1.5,0-2.66-0.5-3.49-1.51s-1.25-2.4-1.25-4.18V137.04z M378.48,137.8
		c0,2.09,0.56,3.13,1.67,3.13c1.03,0,1.58-0.87,1.66-2.61l0.01-1.29c0-1.06-0.15-1.85-0.44-2.37c-0.29-0.51-0.71-0.77-1.25-0.77
		c-0.52,0-0.92,0.26-1.21,0.77c-0.29,0.51-0.44,1.3-0.44,2.37V137.8z"/>
	<path class="st0" d="M400.37,138.13l1.05-6.55h2.93l-2.42,11.68h-2.54l-1.65-6.76l-1.65,6.76h-2.55l-2.42-11.68h2.94l1.04,6.56
		l1.55-6.56h2.17L400.37,138.13z"/>
	<path class="st0" d="M410.57,143.47c-1.57,0-2.79-0.47-3.67-1.4s-1.32-2.27-1.32-4.02v-0.93c0-1.84,0.4-3.26,1.21-4.26
		s1.96-1.5,3.46-1.5c1.47,0,2.57,0.47,3.31,1.41s1.12,2.33,1.13,4.17v1.5h-6.08c0.04,0.87,0.23,1.5,0.57,1.9
		c0.34,0.4,0.86,0.6,1.57,0.6c1.02,0,1.87-0.35,2.56-1.05l1.2,1.85c-0.37,0.52-0.92,0.94-1.63,1.26
		C412.18,143.31,411.4,143.47,410.57,143.47z M408.65,136.3h3.05v-0.28c-0.01-0.7-0.13-1.23-0.34-1.59
		c-0.22-0.36-0.59-0.54-1.12-0.54s-0.92,0.19-1.16,0.57C408.83,134.85,408.69,135.46,408.65,136.3z"/>
	<path class="st0" d="M416.68,141.7c0-0.49,0.16-0.89,0.49-1.21c0.33-0.32,0.75-0.47,1.28-0.47c0.51,0,0.94,0.16,1.27,0.47
		c0.34,0.31,0.51,0.72,0.51,1.21c0,0.5-0.17,0.91-0.51,1.21s-0.76,0.46-1.27,0.46c-0.51,0-0.93-0.16-1.27-0.46
		C416.84,142.6,416.68,142.2,416.68,141.7z"/>
</g>
</svg>
