<?xml version="1.0" encoding="utf-8"?>
<!-- Generator: Adobe Illustrator 25.1.0, SVG Export Plug-In . SVG Version: 6.00 Build 0)  -->
<svg version="1.1" id="Layer_1" xmlns="http://www.w3.org/2000/svg" xmlns:xlink="http://www.w3.org/1999/xlink" x="0px" y="0px"
	 viewBox="0 0 20 20" style="enable-background:new 0 0 20 20;" xml:space="preserve">
<style type="text/css">
	.st0{fill:#FCC529;}
</style>
<path id="SocialFooter_-_1.Facebook" class="st0" d="M5.27,10.65h2.2v9C7.45,19.83,7.58,19.98,7.76,20c0.01,0,0.03,0,0.04,0h3.67
	c0.18,0,0.32-0.14,0.32-0.32l0,0v-9h2.52c0.17,0,0.3-0.13,0.32-0.29l0.42-3.34c0.01-0.08,0-0.17-0.05-0.24
	c-0.06-0.07-0.15-0.11-0.24-0.11h-2.97V4.64c0-0.63,0.34-0.94,1-0.94h1.9c0.18-0.01,0.32-0.15,0.31-0.33c0,0,0,0,0,0V0.32
	c0-0.16-0.11-0.3-0.27-0.32H12c-1.21,0-2.37,0.44-3.28,1.23C7.85,2,7.42,3.14,7.57,4.29v2.43h-2.3C5.11,6.75,5,6.89,5,7.05l0,0v3.28
	c0,0.18,0.14,0.32,0.32,0.32H5.27z"/>
</svg>
