<?xml version="1.0" encoding="utf-8"?>
<!-- Generator: Adobe Illustrator 25.1.0, SVG Export Plug-In . SVG Version: 6.00 Build 0)  -->
<svg version="1.1" id="Layer_1" xmlns="http://www.w3.org/2000/svg" xmlns:xlink="http://www.w3.org/1999/xlink" x="0px" y="0px"
	 viewBox="0 0 20 20" style="enable-background:new 0 0 20 20;" xml:space="preserve">
<style type="text/css">
	.st0{fill:#FCC529;}
</style>
<rect x="11.26" y="3.27" class="st0" width="6.55" height="2.24"/>
<path class="st0" d="M19.9,10.31c-0.12-0.8-0.43-1.57-0.9-2.23c-0.47-0.71-1.13-1.26-1.91-1.61c-0.8-0.33-1.65-0.49-2.51-0.47l0,0
	c-1.45-0.05-2.86,0.49-3.9,1.5c-0.79,0.81-1.29,1.87-1.42,3L9.2,10.4C8.88,9.92,8.44,9.54,7.93,9.28c0.26-0.16,0.49-0.36,0.7-0.59
	c0.49-0.63,0.75-1.41,0.71-2.21c0.02-0.81-0.23-1.61-0.7-2.27C7.68,3.09,6.25,2.5,4.78,2.62H0V17h4.32c0.69,0,1.37-0.06,2.05-0.19
	c0.61-0.12,1.19-0.38,1.69-0.75c0.67-0.51,1.18-1.2,1.46-2c0.24,0.78,0.69,1.48,1.32,2c1.09,0.87,2.44,1.34,3.83,1.32
	c1.53,0.09,3.03-0.49,4.11-1.58c0.56-0.54,0.94-1.24,1.07-2v-0.29h-3.19l-0.07,0.14c-0.12,0.24-0.29,0.45-0.49,0.63
	c-0.39,0.29-0.87,0.43-1.35,0.41c-0.48,0.01-0.96-0.11-1.37-0.35c-0.6-0.36-0.97-0.99-1-1.69H20v-0.26
	C20.02,11.7,19.99,11,19.9,10.31z M3.32,10.91h0.93c0.45-0.01,0.89,0.06,1.31,0.21c0.5,0.21,0.8,0.72,0.74,1.26
	c0.08,0.61-0.23,1.21-0.78,1.5c-0.41,0.17-0.86,0.25-1.31,0.22H3.32L3.32,10.91z M5.57,7.79C5.15,8.02,4.68,8.12,4.21,8.1H3.32V5.55
	h0.53C4.38,5.54,4.91,5.6,5.42,5.74c0.39,0.17,0.64,0.57,0.6,1C6.09,7.15,5.91,7.56,5.57,7.79z M12.57,10.36
	c0.09-0.43,0.3-0.83,0.6-1.15c0.39-0.36,0.91-0.54,1.44-0.52c0.53-0.02,1.04,0.16,1.45,0.5c0.34,0.3,0.56,0.72,0.61,1.17
	L12.57,10.36z"/>
</svg>
