<?xml version="1.0" encoding="utf-8"?>
<!-- Generator: Adobe Illustrator 25.1.0, SVG Export Plug-In . SVG Version: 6.00 Build 0)  -->
<svg version="1.1" id="Layer_1" xmlns="http://www.w3.org/2000/svg" xmlns:xlink="http://www.w3.org/1999/xlink" x="0px" y="0px"
	 viewBox="0 0 20 20" style="enable-background:new 0 0 20 20;" xml:space="preserve">
<style type="text/css">
	.st0{fill:#FCC529;}
</style>
<path id="instagramfour" class="st0" d="M6.25,10C6.24,7.93,7.91,6.26,9.98,6.25c0.01,0,0.01,0,0.02,0l0,0
	c2.07-0.01,3.74,1.66,3.75,3.73c0,0.01,0,0.01,0,0.02l0,0c0.01,2.07-1.66,3.74-3.73,3.75c-0.01,0-0.01,0-0.02,0l0,0
	c-2.07,0.01-3.74-1.66-3.75-3.73C6.25,10.01,6.25,10.01,6.25,10z M20,8.75v8.75c0,1.38-1.12,2.5-2.5,2.5h-15
	c-0.66,0.01-1.3-0.26-1.77-0.73C0.25,18.81-0.01,18.17,0,17.5v-15c-0.01-0.67,0.25-1.31,0.73-1.77C1.19,0.25,1.83-0.01,2.5,0h15
	c0.66-0.01,1.3,0.26,1.77,0.73c0.48,0.46,0.74,1.1,0.73,1.77v3.75h-5c-0.58-0.77-1.33-1.39-2.19-1.83c-1.77-0.89-3.85-0.89-5.62,0
	C6.33,4.86,5.58,5.48,5,6.25H0v2.5h3.87C3.79,9.16,3.75,9.58,3.75,10c-0.01,1.1,0.28,2.18,0.84,3.13c1.73,2.99,5.55,4.01,8.54,2.28
	c0.95-0.55,1.73-1.33,2.28-2.28c0.56-0.95,0.85-2.03,0.84-3.13c0-0.42-0.04-0.84-0.12-1.25H20z"/>
</svg>
