<?xml version="1.0" encoding="utf-8"?>
<!-- Generator: Adobe Illustrator 25.1.0, SVG Export Plug-In . SVG Version: 6.00 Build 0)  -->
<svg version="1.1" id="Layer_1" xmlns="http://www.w3.org/2000/svg" xmlns:xlink="http://www.w3.org/1999/xlink" x="0px" y="0px"
	 viewBox="0 0 20 20" style="enable-background:new 0 0 20 20;" xml:space="preserve">
<style type="text/css">
	.st0{fill:#FCC529;}
</style>
<g id="SocialFooter_-_2.LinkedIn">
	<path id="Path_21" class="st0" d="M2.41,0.17c1.32,0.04,2.38,1.1,2.42,2.42C4.74,3.92,3.59,4.94,2.26,4.85
		C1.05,4.77,0.08,3.8,0,2.59C-0.02,1.28,1.02,0.2,2.33,0.17H2.41"/>
	<path id="Path_22" class="st0" d="M3.76,19.82H1c-0.38,0.01-0.69-0.3-0.7-0.68c0,0,0-0.01,0-0.01V7.07
		C0.28,6.71,0.56,6.4,0.92,6.38h2.84c0.38,0,0.69,0.31,0.69,0.69l0,0v12.1C4.43,19.54,4.13,19.82,3.76,19.82"/>
	<path id="Path_23" class="st0" d="M20,10.59C20.09,8.15,18.19,6.1,15.75,6c-0.03,0-0.06,0-0.08,0h-0.88
		c-1.36-0.03-2.65,0.62-3.45,1.73L11,8.11V6.72c-0.04-0.17-0.18-0.31-0.35-0.34H7.21C7.03,6.39,6.89,6.52,6.86,6.69v12.86
		c0,0.14,0.21,0.27,0.35,0.27H11c0.13,0,0.34-0.13,0.34-0.27v-7.47c-0.12-1.24,0.8-2.34,2.04-2.46s2.34,0.8,2.46,2.04
		c0.01,0.06,0.01,0.11,0.01,0.17v7.66c0.04,0.17,0.18,0.3,0.35,0.34h3.45c0.16-0.05,0.29-0.18,0.34-0.34L20,10.59L20,10.59z"/>
</g>
</svg>
