<?xml version="1.0" encoding="utf-8"?>
<!-- Generator: Adobe Illustrator 24.3.0, SVG Export Plug-In . SVG Version: 6.00 Build 0)  -->
<svg version="1.1" id="Layer_1" xmlns="http://www.w3.org/2000/svg" xmlns:xlink="http://www.w3.org/1999/xlink" x="0px" y="0px"
	 viewBox="0 0 40 40" style="enable-background:new 0 0 40 40;" xml:space="preserve">
<style type="text/css">
	.st0{fill:#FFD02F;}
	.st1{fill-rule:evenodd;clip-rule:evenodd;fill:#050038;}
</style>
<path class="st0" d="M33,40H7c-3.9,0-7-3.1-7-7V7c0-3.9,3.1-7,7-7h26c3.9,0,7,3.1,7,7v26C40,36.9,36.9,40,33,40z"/>
<path class="st1" d="M27.3,5.3H23l3.8,5.9l-8-5.9h-4.3l3.8,7.7l-8-7.7H6l3.7,9.9L6,34.7h4.3l8-20.8l-3.8,20.8h4.3l8-22.6L23,34.7
	h4.3l8.1-24.8C35.3,9.8,27.3,5.3,27.3,5.3z"/>
</svg>
