<?xml version="1.0" encoding="utf-8"?>
<!-- Generator: Adobe Illustrator 24.3.0, SVG Export Plug-In . SVG Version: 6.00 Build 0)  -->
<svg version="1.1" id="Layer_1" xmlns="http://www.w3.org/2000/svg" xmlns:xlink="http://www.w3.org/1999/xlink" x="0px" y="0px"
	 viewBox="0 0 40 40" style="enable-background:new 0 0 40 40;" xml:space="preserve">
<style type="text/css">
	.st0{fill:#470137;}
	.st1{fill:#FF61F6;}
</style>
<path class="st0" d="M33,40H7c-3.9,0-7-3.1-7-7V7c0-3.9,3.1-7,7-7h26c3.9,0,7,3.1,7,7v26C40,36.9,36.9,40,33,40z"/>
<g id="Outlined_Mnemonics_Logos">
	<g id="Xd">
		<path class="st1" d="M21,12.1l-5,8.3l5.3,8.8c0,0.1,0.1,0.1,0,0.2s-0.1,0-0.2,0h-3.8c-0.3,0-0.4,0-0.6-0.2
			c-0.3-0.7-0.7-1.4-1.1-2.1c-0.3-0.7-0.7-1.4-1.1-2.1c-0.4-0.7-0.8-1.4-1.2-2.2h0c-0.3,0.7-0.7,1.4-1.1,2.1
			c-0.4,0.7-0.8,1.4-1.1,2.1c-0.4,0.7-0.8,1.4-1.2,2.1c-0.1,0.2-0.2,0.2-0.4,0.2H5.9c-0.1,0-0.1,0-0.1-0.1c0-0.1,0-0.1,0-0.2
			l5.2-8.5L6,12c0-0.1-0.1-0.1,0-0.2c0,0,0.1-0.1,0.2-0.1h3.8c0.1,0,0.2,0,0.2,0c0.1,0,0.1,0.1,0.2,0.1c0.3,0.7,0.7,1.4,1.1,2.1
			c0.4,0.7,0.8,1.4,1.2,2.1c0.4,0.7,0.8,1.4,1.1,2.1h0c0.4-0.7,0.7-1.5,1.1-2.2c0.4-0.7,0.8-1.4,1.1-2.1c0.4-0.7,0.8-1.4,1.1-2.1
			c0-0.1,0.1-0.1,0.1-0.2c0.1,0,0.1-0.1,0.2,0h3.5c0.1,0,0.2,0,0.2,0.1C21.1,12,21.1,12,21,12.1L21,12.1z"/>
		<path class="st1" d="M28.7,29.6c-1.2,0-2.5-0.2-3.6-0.8c-1.1-0.5-1.9-1.3-2.5-2.3c-0.6-1-0.9-2.3-0.9-3.8c0-1.2,0.3-2.4,0.9-3.5
			c0.6-1.1,1.6-2,2.6-2.6c1.2-0.6,2.6-1,4.2-1c0.1,0,0.2,0,0.4,0c0.1,0,0.3,0,0.5,0v-5.3c0-0.1,0.1-0.2,0.2-0.2h3.4
			c0.1,0,0.2,0.1,0.2,0.1c0,0,0,0,0,0v15.9c0,0.3,0,0.6,0,1c0,0.4,0,0.7,0.1,1c0,0.1,0,0.2-0.2,0.3c-0.9,0.4-1.8,0.6-2.7,0.8
			C30.4,29.6,29.6,29.6,28.7,29.6z M30.4,26.3V19c-0.1,0-0.3-0.1-0.4-0.1c-0.2,0-0.4,0-0.6,0c-0.6,0-1.3,0.1-1.9,0.4
			c-0.6,0.3-1.1,0.7-1.4,1.2c-0.4,0.5-0.5,1.3-0.5,2.1c0,0.6,0.1,1.2,0.3,1.7c0.2,0.5,0.4,0.9,0.8,1.2c0.3,0.3,0.7,0.5,1.1,0.7
			c0.4,0.1,0.9,0.2,1.4,0.2c0.3,0,0.5,0,0.7,0C30,26.4,30.2,26.4,30.4,26.3z"/>
	</g>
</g>
</svg>
