<?xml version="1.0" encoding="utf-8"?>
<!-- Generator: Adobe Illustrator 24.3.0, SVG Export Plug-In . SVG Version: 6.00 Build 0)  -->
<svg version="1.1" id="Layer_1" xmlns="http://www.w3.org/2000/svg" xmlns:xlink="http://www.w3.org/1999/xlink" x="0px" y="0px"
	 viewBox="0 0 40 40" style="enable-background:new 0 0 40 40;" xml:space="preserve">
<style type="text/css">
	.st0{fill:#2D2D2D;}
	.st1{fill:#0ACF83;}
	.st2{fill:#A259FF;}
	.st3{fill:#F24E1E;}
	.st4{fill:#FF7262;}
	.st5{fill:#1ABCFE;}
</style>
<path class="st0" d="M33,40H7c-3.9,0-7-3.1-7-7V7c0-3.9,3.1-7,7-7h26c3.9,0,7,3.1,7,7v26C40,36.9,36.9,40,33,40z"/>
<desc>Created using Figma</desc>
<g>
	<path id="path0_fill" class="st1" d="M15.2,34.3c2.6,0,4.8-2.1,4.8-4.8v-4.8h-4.8c-2.6,0-4.8,2.1-4.8,4.8
		C10.5,32.1,12.6,34.3,15.2,34.3z"/>
	<path id="path1_fill" class="st2" d="M10.5,20c0-2.6,2.1-4.8,4.8-4.8H20v9.5h-4.8C12.6,24.8,10.5,22.6,10.5,20z"/>
	<path id="path1_fill_1_" class="st3" d="M10.5,10.5c0-2.6,2.1-4.8,4.8-4.8H20v9.5h-4.8C12.6,15.2,10.5,13.1,10.5,10.5z"/>
	<path id="path2_fill" class="st4" d="M20,5.7h4.8c2.6,0,4.8,2.1,4.8,4.8s-2.1,4.8-4.8,4.8H20V5.7z"/>
	<path id="path3_fill" class="st5" d="M29.5,20c0,2.6-2.1,4.8-4.8,4.8S20,22.6,20,20s2.1-4.8,4.8-4.8S29.5,17.4,29.5,20z"/>
</g>
</svg>
