<?xml version="1.0" encoding="utf-8"?>
<!-- Generator: Adobe Illustrator 24.3.0, SVG Export Plug-In . SVG Version: 6.00 Build 0)  -->
<svg version="1.1" id="Layer_1" xmlns="http://www.w3.org/2000/svg" xmlns:xlink="http://www.w3.org/1999/xlink" x="0px" y="0px"
	 viewBox="0 0 40 40" style="enable-background:new 0 0 40 40;" xml:space="preserve">
<style type="text/css">
	.st0{fill:#330000;}
	.st1{fill:#FF9A00;}
</style>
<path class="st0" d="M33,40H7c-3.9,0-7-3.1-7-7V7c0-3.9,3.1-7,7-7h26c3.9,0,7,3.1,7,7v26C40,36.9,36.9,40,33,40z"/>
<g id="Outlined_Mnemonics_Logos">
	<g id="Ai">
		<path class="st1" d="M19.4,23.9h-6.2l-1.3,3.9c0,0.1-0.2,0.3-0.3,0.2H8.5c-0.2,0-0.2-0.1-0.2-0.3l5.4-15.4
			c0.1-0.2,0.1-0.4,0.2-0.6c0.1-0.3,0.1-0.7,0.1-1.1c0-0.1,0.1-0.2,0.1-0.2c0,0,0,0,0.1,0h4.3c0.1,0,0.2,0.1,0.2,0.1l6.1,17.2
			c0.1,0.2,0,0.3-0.2,0.3H21c-0.1,0-0.2-0.1-0.3-0.2L19.4,23.9z M14.2,20.5h4.2c-0.1-0.4-0.2-0.8-0.4-1.2c-0.1-0.5-0.3-0.9-0.4-1.4
			c-0.2-0.5-0.3-1-0.5-1.5c-0.2-0.5-0.3-1-0.5-1.5c-0.1-0.5-0.3-0.9-0.4-1.3h0c-0.2,0.7-0.3,1.4-0.6,2.2c-0.3,0.8-0.5,1.6-0.8,2.5
			C14.7,19,14.4,19.8,14.2,20.5L14.2,20.5z"/>
		<path class="st1" d="M28.3,13.3c-0.6,0-1.1-0.2-1.5-0.6c-0.4-0.4-0.6-1-0.6-1.5c0-0.6,0.2-1.1,0.6-1.5c0.4-0.4,0.9-0.6,1.5-0.6
			c0.6,0,1.1,0.2,1.5,0.6c0.4,0.4,0.6,0.9,0.5,1.5c0,0.6-0.2,1.1-0.6,1.5C29.4,13.2,28.9,13.4,28.3,13.3z M26.4,27.8V15
			c0-0.2,0.1-0.2,0.2-0.2H30c0.1,0,0.2,0.1,0.2,0.2v12.8c0,0.2-0.1,0.3-0.2,0.3h-3.3C26.5,28.1,26.4,28,26.4,27.8z"/>
	</g>
</g>
</svg>
