<?xml version="1.0" encoding="utf-8"?>
<!-- Generator: Adobe Illustrator 24.3.0, SVG Export Plug-In . SVG Version: 6.00 Build 0)  -->
<svg version="1.1" id="Livello_1" xmlns="http://www.w3.org/2000/svg" xmlns:xlink="http://www.w3.org/1999/xlink" x="0px" y="0px"
	 viewBox="0 0 40 40" style="enable-background:new 0 0 40 40;" xml:space="preserve">
<style type="text/css">
	.st0{fill:#FF8F6B;}
	.st1{fill:#D35230;}
	.st2{fill:none;}
	.st3{fill:#ED6C47;}
	.st4{opacity:0.1;enable-background:new    ;}
	.st5{opacity:0.2;enable-background:new    ;}
	.st6{fill:url(#SVGID_1_);}
	.st7{fill:url(#SVGID_2_);}
	.st8{fill:url(#SVGID_3_);}
	.st9{fill:url(#SVGID_4_);}
	.st10{fill:url(#SVGID_5_);}
	.st11{fill:url(#SVGID_6_);}
	.st12{fill:url(#SVGID_7_);}
	.st13{fill:url(#SVGID_8_);}
	.st14{fill:url(#SVGID_9_);}
	.st15{fill:url(#SVGID_10_);}
	.st16{fill:#FFFFFF;}
</style>
<g>
	<polygon class="st0" points="40,20 40,19.8 40,19.8 40,20 	"/>
	<polygon class="st1" points="40,20 40,20 40,20 	"/>
	<rect x="40" y="8.8" class="st0" width="0" height="10.3"/>
	<rect x="40" y="7.8" class="st0" width="0" height="1"/>
	<path class="st2" d="M40,19.8v-0.6h0C40,19.4,40,19.6,40,19.8z"/>
	<path class="st0" d="M29.2,19.2V8.8h-6.8L23.9,20H40v-0.2c0-0.2,0-0.4,0-0.6H29.2z"/>
	<path class="st0" d="M21.4,9c0.5,0.3,0.9,0.8,0.9,1.5V20h1.6L22.4,8.8h-1V9z"/>
	<path class="st1" d="M24.1,21.1l0.1,0.8l-1.9-0.2v8.7c0,0.7-0.4,1.3-1.1,1.6C21,32.6,20.4,33,19.7,33H0c0,3.9,3.1,7,7,7h26
		c3.9,0,7-3.1,7-7V20l-9.3,3.7L24.1,21.1z"/>
	<polygon class="st1" points="22.3,21.7 24.2,21.9 24.1,21.1 22.3,20.4 	"/>
	<polygon class="st1" points="23.9,20 24.1,21.1 30.7,23.7 40,20 40,20 	"/>
	<polygon class="st1" points="22.3,20.4 24.1,21.1 23.9,20 22.3,20 	"/>
	<path class="st0" d="M21.6,1.4c5.6,0,10.6,2.5,14,6.4H40V7c0-3.9-3.1-7-7-7H21.4v1.4H21.6z"/>
	<path class="st0" d="M29.2,8.8v-1h6.4c-3.4-3.9-8.4-6.4-14-6.4h-0.2l1,7.4H29.2z"/>
	<polygon class="st0" points="22.4,8.8 21.4,1.4 21.4,8.8 	"/>
	<path class="st3" d="M7,0C3.1,0,0,3.1,0,7v1.8h6.5h14.2c0.3,0,0.5,0.1,0.8,0.2V8.8V1.4V0H7z"/>
	<path class="st0" d="M36.4,8.8c2.2,2.9,3.5,6.5,3.6,10.3h0V8.8H36.4z"/>
	<path class="st0" d="M29.2,19.2H40c-0.1-3.9-1.5-7.4-3.6-10.3h-7.2V19.2z"/>
	<path class="st0" d="M40,8.8v-1h-4.4c0.3,0.3,0.5,0.7,0.8,1H40z"/>
	<path class="st0" d="M29.2,8.8h7.2c-0.3-0.3-0.5-0.7-0.8-1h-6.4V8.8z"/>
	<path class="st3" d="M21.4,11.1L21.4,11.1c0,0.1,0,0.3,0,0.4V11.1z"/>
	<path class="st4" d="M21.4,11.1L21.4,11.1c0,0.1,0,0.3,0,0.4V11.1z"/>
	<path class="st0" d="M21.4,20h0.9v-9.5c0-0.7-0.4-1.2-0.9-1.5v2v0.4V20z"/>
	<path class="st4" d="M21.4,20h0.9v-9.5c0-0.7-0.4-1.2-0.9-1.5v2v0.4V20z"/>
	<path class="st1" d="M21.4,29.5v1.9c0,0.2,0,0.4-0.1,0.6c0.6-0.3,1.1-0.9,1.1-1.6v-8.7l-0.9-0.1V29.5z"/>
	<path class="st4" d="M21.4,29.5v1.9c0,0.2,0,0.4-0.1,0.6c0.6-0.3,1.1-0.9,1.1-1.6v-8.7l-0.9-0.1V29.5z"/>
	<polygon class="st1" points="21.4,20 21.4,21.6 22.3,21.7 22.3,20.4 	"/>
	<polygon class="st4" points="21.4,20 21.4,21.6 22.3,21.7 22.3,20.4 	"/>
	<polygon class="st1" points="22.3,20.4 22.3,20 21.4,20 	"/>
	<polygon class="st4" points="22.3,20.4 22.3,20 21.4,20 	"/>
	<path class="st3" d="M1.7,9.8h4.1C6,9.4,6.2,9.1,6.5,8.8H0v0.9H1.7z"/>
	<path class="st4" d="M1.7,9.8h4.1C6,9.4,6.2,9.1,6.5,8.8H0v0.9H1.7z"/>
	<path class="st3" d="M18.8,9.8h0.9c0.8,0,1.5,0.6,1.6,1.3h0.1V9c-0.2-0.1-0.5-0.2-0.8-0.2H6.5C6.2,9.1,6,9.4,5.8,9.8H18.8L18.8,9.8
		z"/>
	<path class="st4" d="M18.8,9.8h0.9c0.8,0,1.5,0.6,1.6,1.3h0.1V9c-0.2-0.1-0.5-0.2-0.8-0.2H6.5C6.2,9.1,6,9.4,5.8,9.8H18.8L18.8,9.8
		z"/>
	<path class="st1" d="M21.3,32c-0.2,0.1-0.4,0.1-0.6,0.1H0V33c0,0,0,0,0,0h19.7C20.4,33,21,32.6,21.3,32z"/>
	<path class="st5" d="M21.3,32c-0.2,0.1-0.4,0.1-0.6,0.1H0V33c0,0,0,0,0,0h19.7C20.4,33,21,32.6,21.3,32z"/>
	<path class="st1" d="M21.4,29.5c0,0.9-0.8,1.7-1.7,1.7h-0.9H0v0.9h20.6c0.2,0,0.4,0,0.6-0.1c0.1-0.2,0.1-0.4,0.1-0.6V29.5z"/>
	<path class="st4" d="M21.4,29.5c0,0.9-0.8,1.7-1.7,1.7h-0.9H0v0.9h20.6c0.2,0,0.4,0,0.6-0.1c0.1-0.2,0.1-0.4,0.1-0.6V29.5z"/>
	<path class="st5" d="M21.4,29.5c0,0.9-0.8,1.7-1.7,1.7h-0.9H0v0.9h20.6c0.2,0,0.4,0,0.6-0.1c0.1-0.2,0.1-0.4,0.1-0.6V29.5z"/>
	<path class="st3" d="M20.5,11.4C20.5,11.4,20.5,11.5,20.5,11.4L20.5,11.4l0,8.6h0.9v-8.5c0-0.1,0-0.3-0.1-0.4h-0.9
		C20.4,11.2,20.5,11.3,20.5,11.4z"/>
	<path class="st4" d="M20.5,11.4C20.5,11.4,20.5,11.5,20.5,11.4L20.5,11.4l0,8.6h0.9v-8.5c0-0.1,0-0.3-0.1-0.4h-0.9
		C20.4,11.2,20.5,11.3,20.5,11.4z"/>
	<path class="st5" d="M20.5,11.4C20.5,11.4,20.5,11.5,20.5,11.4L20.5,11.4l0,8.6h0.9v-8.5c0-0.1,0-0.3-0.1-0.4h-0.9
		C20.4,11.2,20.5,11.3,20.5,11.4z"/>
	<path class="st5" d="M20.5,11.4C20.5,11.4,20.5,11.5,20.5,11.4L20.5,11.4l0,8.6h0.9v-8.5c0-0.1,0-0.3-0.1-0.4h-0.9
		C20.4,11.2,20.5,11.3,20.5,11.4z"/>
	<path class="st1" d="M21.4,29.5v-7.8l-0.9-0.1v7v0.9c0,0.9-0.8,1.7-1.7,1.7h0.9C20.6,31.2,21.4,30.4,21.4,29.5z"/>
	<path class="st4" d="M21.4,29.5v-7.8l-0.9-0.1v7v0.9c0,0.9-0.8,1.7-1.7,1.7h0.9C20.6,31.2,21.4,30.4,21.4,29.5z"/>
	<path class="st5" d="M21.4,29.5v-7.8l-0.9-0.1v7v0.9c0,0.9-0.8,1.7-1.7,1.7h0.9C20.6,31.2,21.4,30.4,21.4,29.5z"/>
	<path class="st5" d="M21.4,29.5v-7.8l-0.9-0.1v7v0.9c0,0.9-0.8,1.7-1.7,1.7h0.9C20.6,31.2,21.4,30.4,21.4,29.5z"/>
	<polygon class="st1" points="20.5,21.5 21.4,21.6 21.4,20 20.5,20 	"/>
	<polygon class="st4" points="20.5,21.5 21.4,21.6 21.4,20 20.5,20 	"/>
	<polygon class="st5" points="20.5,21.5 21.4,21.6 21.4,20 20.5,20 	"/>
	<polygon class="st5" points="20.5,21.5 21.4,21.6 21.4,20 20.5,20 	"/>
	<path class="st3" d="M20.4,11.1h0.9c-0.2-0.7-0.8-1.3-1.6-1.3h-0.9c0,0,0,0,0,0C19.6,9.8,20.2,10.3,20.4,11.1z"/>
	<path class="st4" d="M20.4,11.1h0.9c-0.2-0.7-0.8-1.3-1.6-1.3h-0.9c0,0,0,0,0,0C19.6,9.8,20.2,10.3,20.4,11.1z"/>
	<path class="st5" d="M20.4,11.1h0.9c-0.2-0.7-0.8-1.3-1.6-1.3h-0.9c0,0,0,0,0,0C19.6,9.8,20.2,10.3,20.4,11.1z"/>
	<path class="st5" d="M20.4,11.1h0.9c-0.2-0.7-0.8-1.3-1.6-1.3h-0.9c0,0,0,0,0,0C19.6,9.8,20.2,10.3,20.4,11.1z"/>
	<path class="st4" d="M0,11.5c0-0.1,0-0.3,0.1-0.4H0V20h0V11.5z"/>
	<path class="st5" d="M0,11.5c0-0.1,0-0.3,0.1-0.4H0V20h0V11.5z"/>
	<path class="st5" d="M0,11.5c0-0.1,0-0.3,0.1-0.4H0V20h0V11.5z"/>
	<path class="st5" d="M0,11.5c0-0.1,0-0.3,0.1-0.4H0V20h0V11.5z"/>
	<path class="st3" d="M20.5,11.4C20.5,11.4,20.5,11.5,20.5,11.4L20.5,11.4C20.5,11.5,20.5,11.4,20.5,11.4z"/>
	<path class="st4" d="M20.5,11.4C20.5,11.4,20.5,11.5,20.5,11.4L20.5,11.4C20.5,11.5,20.5,11.4,20.5,11.4z"/>
	<path class="st5" d="M20.5,11.4C20.5,11.4,20.5,11.5,20.5,11.4L20.5,11.4C20.5,11.5,20.5,11.4,20.5,11.4z"/>
	<path class="st5" d="M20.5,11.4C20.5,11.4,20.5,11.5,20.5,11.4L20.5,11.4C20.5,11.5,20.5,11.4,20.5,11.4z"/>
	<path class="st5" d="M20.5,11.4C20.5,11.4,20.5,11.5,20.5,11.4L20.5,11.4C20.5,11.5,20.5,11.4,20.5,11.4z"/>
	<path class="st1" d="M18.8,31.2c0.9,0,1.7-0.8,1.7-1.7v-0.9c0,0.9-0.8,1.7-1.7,1.7H1.7c-0.9,0-1.7-0.8-1.7-1.7V20h0v11.2H18.8z"/>
	<path class="st4" d="M18.8,31.2c0.9,0,1.7-0.8,1.7-1.7v-0.9c0,0.9-0.8,1.7-1.7,1.7H1.7c-0.9,0-1.7-0.8-1.7-1.7V20h0v11.2H18.8z"/>
	<path class="st5" d="M18.8,31.2c0.9,0,1.7-0.8,1.7-1.7v-0.9c0,0.9-0.8,1.7-1.7,1.7H1.7c-0.9,0-1.7-0.8-1.7-1.7V20h0v11.2H18.8z"/>
	<path class="st5" d="M18.8,31.2c0.9,0,1.7-0.8,1.7-1.7v-0.9c0,0.9-0.8,1.7-1.7,1.7H1.7c-0.9,0-1.7-0.8-1.7-1.7V20h0v11.2H18.8z"/>
	<path class="st5" d="M18.8,31.2c0.9,0,1.7-0.8,1.7-1.7v-0.9c0,0.9-0.8,1.7-1.7,1.7H1.7c-0.9,0-1.7-0.8-1.7-1.7V20h0v11.2H18.8z"/>
	<path class="st3" d="M1.7,9.8H0v1.3h0.1C0.2,10.3,0.9,9.8,1.7,9.8z"/>
	<path class="st4" d="M1.7,9.8H0v1.3h0.1C0.2,10.3,0.9,9.8,1.7,9.8z"/>
	<path class="st5" d="M1.7,9.8H0v1.3h0.1C0.2,10.3,0.9,9.8,1.7,9.8z"/>
	<path class="st5" d="M1.7,9.8H0v1.3h0.1C0.2,10.3,0.9,9.8,1.7,9.8z"/>
	<path class="st5" d="M1.7,9.8H0v1.3h0.1C0.2,10.3,0.9,9.8,1.7,9.8z"/>
	<path class="st3" d="M18.8,9.8C18.8,9.8,18.8,9.8,18.8,9.8C18.8,9.8,18.8,9.8,18.8,9.8L18.8,9.8z"/>
	<path class="st4" d="M18.8,9.8C18.8,9.8,18.8,9.8,18.8,9.8C18.8,9.8,18.8,9.8,18.8,9.8L18.8,9.8z"/>
	<path class="st5" d="M18.8,9.8C18.8,9.8,18.8,9.8,18.8,9.8C18.8,9.8,18.8,9.8,18.8,9.8L18.8,9.8z"/>
	<path class="st5" d="M18.8,9.8C18.8,9.8,18.8,9.8,18.8,9.8C18.8,9.8,18.8,9.8,18.8,9.8L18.8,9.8z"/>
	<path class="st5" d="M18.8,9.8C18.8,9.8,18.8,9.8,18.8,9.8C18.8,9.8,18.8,9.8,18.8,9.8L18.8,9.8z"/>
	<path class="st3" d="M20.4,11.1L20.4,11.1c0,0.1,0,0.2,0.1,0.4C20.5,11.3,20.4,11.2,20.4,11.1z"/>
	<path class="st4" d="M20.4,11.1L20.4,11.1c0,0.1,0,0.2,0.1,0.4C20.5,11.3,20.4,11.2,20.4,11.1z"/>
	<path class="st5" d="M20.4,11.1L20.4,11.1c0,0.1,0,0.2,0.1,0.4C20.5,11.3,20.4,11.2,20.4,11.1z"/>
	<path class="st5" d="M20.4,11.1L20.4,11.1c0,0.1,0,0.2,0.1,0.4C20.5,11.3,20.4,11.2,20.4,11.1z"/>
	
		<linearGradient id="SVGID_1_" gradientUnits="userSpaceOnUse" x1="14.9991" y1="-1746.1724" x2="28.3538" y2="-1723.0426" gradientTransform="matrix(1 0 0 1 0 1748)">
		<stop  offset="0" style="stop-color:#CA4C28"/>
		<stop  offset="0.5" style="stop-color:#C5401E"/>
		<stop  offset="1" style="stop-color:#B62F14"/>
	</linearGradient>
	<path class="st6" d="M20.4,11.1L20.4,11.1c0,0.1,0,0.2,0.1,0.4C20.5,11.3,20.4,11.2,20.4,11.1z"/>
	<path class="st3" d="M18.8,9.8c0.8,0,1.4,0.6,1.6,1.3h0C20.2,10.3,19.6,9.8,18.8,9.8z"/>
	<path class="st4" d="M18.8,9.8c0.8,0,1.4,0.6,1.6,1.3h0C20.2,10.3,19.6,9.8,18.8,9.8z"/>
	<path class="st5" d="M18.8,9.8c0.8,0,1.4,0.6,1.6,1.3h0C20.2,10.3,19.6,9.8,18.8,9.8z"/>
	<path class="st5" d="M18.8,9.8c0.8,0,1.4,0.6,1.6,1.3h0C20.2,10.3,19.6,9.8,18.8,9.8z"/>
	
		<linearGradient id="SVGID_2_" gradientUnits="userSpaceOnUse" x1="14.7643" y1="-1746.0369" x2="28.119" y2="-1722.907" gradientTransform="matrix(1 0 0 1 0 1748)">
		<stop  offset="0" style="stop-color:#CA4C28"/>
		<stop  offset="0.5" style="stop-color:#C5401E"/>
		<stop  offset="1" style="stop-color:#B62F14"/>
	</linearGradient>
	<path class="st7" d="M18.8,9.8c0.8,0,1.4,0.6,1.6,1.3h0C20.2,10.3,19.6,9.8,18.8,9.8z"/>
	<path class="st4" d="M2.8,19.8c0-3.2,0.8-6.1,2.2-8.7h-5C0,11.2,0,11.3,0,11.5V20h2.8V19.8z"/>
	<path class="st5" d="M2.8,19.8c0-3.2,0.8-6.1,2.2-8.7h-5C0,11.2,0,11.3,0,11.5V20h2.8V19.8z"/>
	<path class="st5" d="M2.8,19.8c0-3.2,0.8-6.1,2.2-8.7h-5C0,11.2,0,11.3,0,11.5V20h2.8V19.8z"/>
	<path class="st5" d="M2.8,19.8c0-3.2,0.8-6.1,2.2-8.7h-5C0,11.2,0,11.3,0,11.5V20h2.8V19.8z"/>
	
		<linearGradient id="SVGID_3_" gradientUnits="userSpaceOnUse" x1="-0.3004" y1="-1737.3387" x2="13.0543" y2="-1714.2089" gradientTransform="matrix(1 0 0 1 0 1748)">
		<stop  offset="0" style="stop-color:#CA4C28"/>
		<stop  offset="0.5" style="stop-color:#C5401E"/>
		<stop  offset="1" style="stop-color:#B62F14"/>
	</linearGradient>
	<path class="st8" d="M2.8,19.8c0-3.2,0.8-6.1,2.2-8.7h-5C0,11.2,0,11.3,0,11.5V20h2.8V19.8z"/>
	<path class="st3" d="M2.8,20h3.1v-5.7h4.5c1.1-0.1,2.2,0.2,3.1,0.9c0.7,0.7,1.1,1.6,1.1,2.6c0,0.7-0.2,1.4-0.5,2
		c0,0.1-0.1,0.1-0.1,0.2h6.5v-8.5c0,0,0,0,0,0c0-0.1,0-0.3-0.1-0.4H5c-1.4,2.6-2.2,5.6-2.2,8.7V20z"/>
	<path class="st4" d="M2.8,20h3.1v-5.7h4.5c1.1-0.1,2.2,0.2,3.1,0.9c0.7,0.7,1.1,1.6,1.1,2.6c0,0.7-0.2,1.4-0.5,2
		c0,0.1-0.1,0.1-0.1,0.2h6.5v-8.5c0,0,0,0,0,0c0-0.1,0-0.3-0.1-0.4H5c-1.4,2.6-2.2,5.6-2.2,8.7V20z"/>
	<path class="st5" d="M2.8,20h3.1v-5.7h4.5c1.1-0.1,2.2,0.2,3.1,0.9c0.7,0.7,1.1,1.6,1.1,2.6c0,0.7-0.2,1.4-0.5,2
		c0,0.1-0.1,0.1-0.1,0.2h6.5v-8.5c0,0,0,0,0,0c0-0.1,0-0.3-0.1-0.4H5c-1.4,2.6-2.2,5.6-2.2,8.7V20z"/>
	<path class="st5" d="M2.8,20h3.1v-5.7h4.5c1.1-0.1,2.2,0.2,3.1,0.9c0.7,0.7,1.1,1.6,1.1,2.6c0,0.7-0.2,1.4-0.5,2
		c0,0.1-0.1,0.1-0.1,0.2h6.5v-8.5c0,0,0,0,0,0c0-0.1,0-0.3-0.1-0.4H5c-1.4,2.6-2.2,5.6-2.2,8.7V20z"/>
	<path class="st5" d="M2.8,20h3.1v-5.7h4.5c1.1-0.1,2.2,0.2,3.1,0.9c0.7,0.7,1.1,1.6,1.1,2.6c0,0.7-0.2,1.4-0.5,2
		c0,0.1-0.1,0.1-0.1,0.2h6.5v-8.5c0,0,0,0,0,0c0-0.1,0-0.3-0.1-0.4H5c-1.4,2.6-2.2,5.6-2.2,8.7V20z"/>
	
		<linearGradient id="SVGID_4_" gradientUnits="userSpaceOnUse" x1="6.5162" y1="-1741.2745" x2="19.8709" y2="-1718.1447" gradientTransform="matrix(1 0 0 1 0 1748)">
		<stop  offset="0" style="stop-color:#CA4C28"/>
		<stop  offset="0.5" style="stop-color:#C5401E"/>
		<stop  offset="1" style="stop-color:#B62F14"/>
	</linearGradient>
	<path class="st9" d="M2.8,20h3.1v-5.7h4.5c1.1-0.1,2.2,0.2,3.1,0.9c0.7,0.7,1.1,1.6,1.1,2.6c0,0.7-0.2,1.4-0.5,2
		c0,0.1-0.1,0.1-0.1,0.2h6.5v-8.5c0,0,0,0,0,0c0-0.1,0-0.3-0.1-0.4H5c-1.4,2.6-2.2,5.6-2.2,8.7V20z"/>
	<path class="st3" d="M10.1,16.1h-2v3.8H10c0.6,0,1.2-0.1,1.7-0.5c0.4-0.4,0.6-0.9,0.6-1.5C12.3,16.7,11.5,16.1,10.1,16.1z"/>
	<path class="st4" d="M10.1,16.1h-2v3.8H10c0.6,0,1.2-0.1,1.7-0.5c0.4-0.4,0.6-0.9,0.6-1.5C12.3,16.7,11.5,16.1,10.1,16.1z"/>
	<path class="st5" d="M10.1,16.1h-2v3.8H10c0.6,0,1.2-0.1,1.7-0.5c0.4-0.4,0.6-0.9,0.6-1.5C12.3,16.7,11.5,16.1,10.1,16.1z"/>
	<path class="st5" d="M10.1,16.1h-2v3.8H10c0.6,0,1.2-0.1,1.7-0.5c0.4-0.4,0.6-0.9,0.6-1.5C12.3,16.7,11.5,16.1,10.1,16.1z"/>
	<path class="st5" d="M10.1,16.1h-2v3.8H10c0.6,0,1.2-0.1,1.7-0.5c0.4-0.4,0.6-0.9,0.6-1.5C12.3,16.7,11.5,16.1,10.1,16.1z"/>
	
		<linearGradient id="SVGID_5_" gradientUnits="userSpaceOnUse" x1="4.1278" y1="-1739.8955" x2="17.4825" y2="-1716.7656" gradientTransform="matrix(1 0 0 1 0 1748)">
		<stop  offset="0" style="stop-color:#CA4C28"/>
		<stop  offset="0.5" style="stop-color:#C5401E"/>
		<stop  offset="1" style="stop-color:#B62F14"/>
	</linearGradient>
	<path class="st10" d="M10.1,16.1h-2v3.8H10c0.6,0,1.2-0.1,1.7-0.5c0.4-0.4,0.6-0.9,0.6-1.5C12.3,16.7,11.5,16.1,10.1,16.1z"/>
	<path class="st1" d="M13,20.9c-0.2,0.1-0.3,0.2-0.5,0.3c-0.7,0.3-1.5,0.5-2.3,0.5H8.1v4H5.9v-5.4L2.8,20H0v8.5
		c0,0.9,0.8,1.7,1.7,1.7h17.1c0.9,0,1.7-0.8,1.7-1.7v-7L13,20.9z"/>
	<path class="st4" d="M13,20.9c-0.2,0.1-0.3,0.2-0.5,0.3c-0.7,0.3-1.5,0.5-2.3,0.5H8.1v4H5.9v-5.4L2.8,20H0v8.5
		c0,0.9,0.8,1.7,1.7,1.7h17.1c0.9,0,1.7-0.8,1.7-1.7v-7L13,20.9z"/>
	<path class="st5" d="M13,20.9c-0.2,0.1-0.3,0.2-0.5,0.3c-0.7,0.3-1.5,0.5-2.3,0.5H8.1v4H5.9v-5.4L2.8,20H0v8.5
		c0,0.9,0.8,1.7,1.7,1.7h17.1c0.9,0,1.7-0.8,1.7-1.7v-7L13,20.9z"/>
	<path class="st5" d="M13,20.9c-0.2,0.1-0.3,0.2-0.5,0.3c-0.7,0.3-1.5,0.5-2.3,0.5H8.1v4H5.9v-5.4L2.8,20H0v8.5
		c0,0.9,0.8,1.7,1.7,1.7h17.1c0.9,0,1.7-0.8,1.7-1.7v-7L13,20.9z"/>
	<path class="st5" d="M13,20.9c-0.2,0.1-0.3,0.2-0.5,0.3c-0.7,0.3-1.5,0.5-2.3,0.5H8.1v4H5.9v-5.4L2.8,20H0v8.5
		c0,0.9,0.8,1.7,1.7,1.7h17.1c0.9,0,1.7-0.8,1.7-1.7v-7L13,20.9z"/>
	
		<linearGradient id="SVGID_6_" gradientUnits="userSpaceOnUse" x1="1.2772" y1="-1738.2495" x2="14.6319" y2="-1715.1198" gradientTransform="matrix(1 0 0 1 0 1748)">
		<stop  offset="0" style="stop-color:#CA4C28"/>
		<stop  offset="0.5" style="stop-color:#C5401E"/>
		<stop  offset="1" style="stop-color:#B62F14"/>
	</linearGradient>
	<path class="st11" d="M13,20.9c-0.2,0.1-0.3,0.2-0.5,0.3c-0.7,0.3-1.5,0.5-2.3,0.5H8.1v4H5.9v-5.4L2.8,20H0v8.5
		c0,0.9,0.8,1.7,1.7,1.7h17.1c0.9,0,1.7-0.8,1.7-1.7v-7L13,20.9z"/>
	<polygon class="st1" points="2.8,20 5.9,20.3 5.9,20 	"/>
	<polygon class="st4" points="2.8,20 5.9,20.3 5.9,20 	"/>
	<polygon class="st5" points="2.8,20 5.9,20.3 5.9,20 	"/>
	<polygon class="st5" points="2.8,20 5.9,20.3 5.9,20 	"/>
	<polygon class="st5" points="2.8,20 5.9,20.3 5.9,20 	"/>
	
		<linearGradient id="SVGID_7_" gradientUnits="userSpaceOnUse" x1="-0.8543" y1="-1737.0189" x2="12.5004" y2="-1713.8892" gradientTransform="matrix(1 0 0 1 0 1748)">
		<stop  offset="0" style="stop-color:#CA4C28"/>
		<stop  offset="0.5" style="stop-color:#C5401E"/>
		<stop  offset="1" style="stop-color:#B62F14"/>
	</linearGradient>
	<polygon class="st12" points="2.8,20 5.9,20.3 5.9,20 	"/>
	<path class="st1" d="M13.9,20c-0.2,0.3-0.6,0.7-0.9,0.9l7.4,0.6V20H13.9z"/>
	<path class="st4" d="M13.9,20c-0.2,0.3-0.6,0.7-0.9,0.9l7.4,0.6V20H13.9z"/>
	<path class="st5" d="M13.9,20c-0.2,0.3-0.6,0.7-0.9,0.9l7.4,0.6V20H13.9z"/>
	<path class="st5" d="M13.9,20c-0.2,0.3-0.6,0.7-0.9,0.9l7.4,0.6V20H13.9z"/>
	<path class="st5" d="M13.9,20c-0.2,0.3-0.6,0.7-0.9,0.9l7.4,0.6V20H13.9z"/>
	
		<linearGradient id="SVGID_8_" gradientUnits="userSpaceOnUse" x1="8.2525" y1="-1742.277" x2="21.6072" y2="-1719.1472" gradientTransform="matrix(1 0 0 1 0 1748)">
		<stop  offset="0" style="stop-color:#CA4C28"/>
		<stop  offset="0.5" style="stop-color:#C5401E"/>
		<stop  offset="1" style="stop-color:#B62F14"/>
	</linearGradient>
	<path class="st13" d="M13.9,20c-0.2,0.3-0.6,0.7-0.9,0.9l7.4,0.6V20H13.9z"/>
	<path class="st3" d="M0.1,11.1h5c0.2-0.4,0.5-0.9,0.8-1.3H1.7C0.9,9.8,0.2,10.3,0.1,11.1z"/>
	<path class="st4" d="M0.1,11.1h5c0.2-0.4,0.5-0.9,0.8-1.3H1.7C0.9,9.8,0.2,10.3,0.1,11.1z"/>
	<path class="st5" d="M0.1,11.1h5c0.2-0.4,0.5-0.9,0.8-1.3H1.7C0.9,9.8,0.2,10.3,0.1,11.1z"/>
	<path class="st5" d="M0.1,11.1h5c0.2-0.4,0.5-0.9,0.8-1.3H1.7C0.9,9.8,0.2,10.3,0.1,11.1z"/>
	<path class="st5" d="M0.1,11.1h5c0.2-0.4,0.5-0.9,0.8-1.3H1.7C0.9,9.8,0.2,10.3,0.1,11.1z"/>
	
		<linearGradient id="SVGID_9_" gradientUnits="userSpaceOnUse" x1="2.2302" y1="-1738.798" x2="15.5849" y2="-1715.6682" gradientTransform="matrix(1 0 0 1 0 1748)">
		<stop  offset="0" style="stop-color:#CA4C28"/>
		<stop  offset="0.5" style="stop-color:#C5401E"/>
		<stop  offset="1" style="stop-color:#B62F14"/>
	</linearGradient>
	<path class="st14" d="M0.1,11.1h5c0.2-0.4,0.5-0.9,0.8-1.3H1.7C0.9,9.8,0.2,10.3,0.1,11.1z"/>
	<path class="st3" d="M20.4,11.1c-0.2-0.7-0.8-1.3-1.6-1.3c0,0,0,0,0,0h-13c-0.3,0.4-0.5,0.8-0.8,1.3H20.4z"/>
	<path class="st4" d="M20.4,11.1c-0.2-0.7-0.8-1.3-1.6-1.3c0,0,0,0,0,0h-13c-0.3,0.4-0.5,0.8-0.8,1.3H20.4z"/>
	<path class="st5" d="M20.4,11.1c-0.2-0.7-0.8-1.3-1.6-1.3c0,0,0,0,0,0h-13c-0.3,0.4-0.5,0.8-0.8,1.3H20.4z"/>
	<path class="st5" d="M20.4,11.1c-0.2-0.7-0.8-1.3-1.6-1.3c0,0,0,0,0,0h-13c-0.3,0.4-0.5,0.8-0.8,1.3H20.4z"/>
	<path class="st5" d="M20.4,11.1c-0.2-0.7-0.8-1.3-1.6-1.3c0,0,0,0,0,0h-13c-0.3,0.4-0.5,0.8-0.8,1.3H20.4z"/>
	
		<linearGradient id="SVGID_10_" gradientUnits="userSpaceOnUse" x1="9.3151" y1="-1742.8905" x2="22.6698" y2="-1719.7607" gradientTransform="matrix(1 0 0 1 0 1748)">
		<stop  offset="0" style="stop-color:#CA4C28"/>
		<stop  offset="0.5" style="stop-color:#C5401E"/>
		<stop  offset="1" style="stop-color:#B62F14"/>
	</linearGradient>
	<path class="st15" d="M20.4,11.1c-0.2-0.7-0.8-1.3-1.6-1.3c0,0,0,0,0,0h-13c-0.3,0.4-0.5,0.8-0.8,1.3H20.4z"/>
	<path class="st16" d="M14.1,19.8c0.4-0.6,0.5-1.3,0.5-2c0.1-1-0.3-2-1.1-2.6c-0.9-0.7-2-1-3.1-0.9H5.9V20h8
		C14,19.9,14,19.9,14.1,19.8z M11.7,19.4c-0.5,0.4-1.1,0.5-1.7,0.5H8.1v-3.8h2c1.5,0,2.2,0.6,2.2,1.9C12.3,18.5,12.1,19,11.7,19.4z"
		/>
	<path class="st16" d="M5.9,25.7h2.2v-4h2.2c0.8,0,1.6-0.1,2.3-0.5c0.2-0.1,0.3-0.2,0.5-0.3l-7.1-0.6V25.7z"/>
	<path class="st16" d="M13.9,20h-8v0.3l7.1,0.6C13.4,20.7,13.7,20.3,13.9,20z"/>
</g>
</svg>
