<?xml version="1.0" encoding="utf-8"?>
<!-- Generator: Adobe Illustrator 24.3.0, SVG Export Plug-In . SVG Version: 6.00 Build 0)  -->
<svg version="1.1" id="Layer_1" xmlns="http://www.w3.org/2000/svg" xmlns:xlink="http://www.w3.org/1999/xlink" x="0px" y="0px"
	 viewBox="0 0 40 40" style="enable-background:new 0 0 40 40;" xml:space="preserve">
<style type="text/css">
	.st0{fill:#4A8CFF;}
	.st1{fill:#FFFFFF;}
</style>
<path class="st0" d="M33,40H7c-3.9,0-7-3.1-7-7V7c0-3.9,3.1-7,7-7h26c3.9,0,7,3.1,7,7v26C40,36.9,36.9,40,33,40z"/>
<path class="st1" d="M26.1,17.4l5.7-4.1c0.5-0.4,0.9-0.3,0.9,0.4v12.6c0,0.8-0.5,0.7-0.9,0.4l-5.7-4.1V17.4z M6.9,13.7v9.4
	c0,2.1,1.7,3.8,3.9,3.8h13.7c0.4,0,0.7-0.3,0.7-0.7v-9.4c0-2.1-1.7-3.8-3.9-3.8H7.7C7.3,13,7,13.3,6.9,13.7z"/>
</svg>
