<?xml version="1.0" encoding="utf-8"?>
<!-- Generator: Adobe Illustrator 24.3.0, SVG Export Plug-In . SVG Version: 6.00 Build 0)  -->
<svg version="1.1" id="Layer_1" xmlns="http://www.w3.org/2000/svg" xmlns:xlink="http://www.w3.org/1999/xlink" x="0px" y="0px"
	 viewBox="0 0 40 40" style="enable-background:new 0 0 40 40;" xml:space="preserve">
<style type="text/css">
	.st0{fill:#001E36;}
	.st1{fill:#31A8FF;}
</style>
<path class="st0" d="M33,40H7c-3.9,0-7-3.1-7-7V7c0-3.9,3.1-7,7-7h26c3.9,0,7,3.1,7,7v26C40,36.9,36.9,40,33,40z"/>
<g id="Outlined_Mnemonics_Logos">
	<g id="Ps">
		<path class="st1" d="M9,27.9V10.7c0-0.1,0.1-0.2,0.2-0.2c0.3,0,0.5,0,0.9,0c0.4,0,0.8,0,1.3,0c0.4,0,0.9,0,1.4,0c0.5,0,1,0,1.5,0
			c1.4,0,2.5,0.2,3.4,0.5c0.8,0.3,1.6,0.8,2.2,1.4c0.5,0.5,1,1.2,1.2,1.9c0.3,0.7,0.4,1.4,0.4,2.2c0,1.4-0.3,2.6-1,3.5
			c-0.7,0.9-1.6,1.6-2.7,2c-1.1,0.4-2.4,0.6-3.8,0.6c-0.4,0-0.7,0-0.8,0c-0.2,0-0.4,0-0.7,0v5.3c0,0.1-0.1,0.2-0.2,0.2
			c0,0,0,0-0.1,0H9.2C9.1,28.1,9,28,9,27.9z M12.6,13.7v5.6c0.2,0,0.4,0,0.6,0h0.9c0.6,0,1.3-0.1,1.9-0.3c0.5-0.1,1-0.5,1.4-0.9
			c0.4-0.4,0.5-1,0.5-1.7c0-0.5-0.1-1-0.4-1.5c-0.3-0.4-0.7-0.8-1.2-0.9c-0.6-0.3-1.3-0.4-2-0.3c-0.4,0-0.8,0-1.1,0
			C13,13.7,12.8,13.7,12.6,13.7L12.6,13.7z"/>
		<path class="st1" d="M32,18.3c-0.5-0.3-1-0.5-1.6-0.6c-0.6-0.1-1.2-0.2-1.9-0.2c-0.3,0-0.7,0-1,0.1c-0.2,0-0.4,0.2-0.5,0.3
			c-0.1,0.1-0.1,0.3-0.1,0.5s0.1,0.3,0.2,0.4c0.1,0.2,0.4,0.3,0.6,0.4c0.4,0.2,0.8,0.4,1.2,0.6c0.9,0.3,1.8,0.7,2.6,1.2
			c0.6,0.4,1,0.8,1.3,1.4c0.3,0.5,0.4,1.1,0.4,1.7c0,0.8-0.2,1.6-0.6,2.2c-0.5,0.7-1.1,1.2-1.9,1.5c-0.8,0.4-1.8,0.5-3,0.5
			c-0.8,0-1.5-0.1-2.3-0.2c-0.6-0.1-1.2-0.3-1.7-0.5c-0.1-0.1-0.2-0.2-0.2-0.3v-2.9c0,0,0-0.1,0.1-0.1s0.1,0,0.1,0
			c0.6,0.4,1.3,0.6,2.1,0.8c0.6,0.2,1.3,0.3,2,0.3c0.6,0,1.1-0.1,1.4-0.2c0.3-0.1,0.4-0.4,0.4-0.7c0-0.2-0.1-0.5-0.4-0.7
			s-0.8-0.5-1.6-0.8c-0.9-0.3-1.6-0.7-2.4-1.2c-0.5-0.4-0.9-0.9-1.3-1.4c-0.3-0.5-0.4-1.1-0.4-1.7c0-0.7,0.2-1.4,0.6-2
			c0.4-0.7,1-1.2,1.8-1.5c0.8-0.4,1.8-0.6,3-0.6c0.7,0,1.4,0.1,2.1,0.2c0.5,0.1,1,0.2,1.4,0.4c0.1,0,0.1,0.1,0.2,0.1
			c0,0.1,0,0.1,0,0.2v2.7c0,0.1,0,0.1-0.1,0.2C32.1,18.4,32.1,18.4,32,18.3z"/>
	</g>
</g>
</svg>
